<svg xmlns="http://www.w3.org/2000/svg" version="1.1" xmlns:xlink="http://www.w3.org/1999/xlink" width="1500" height="741" viewBox="0 0 1500 741"><svg xml:space="preserve" width="1500" height="741" data-version="2" data-id="lg_5pbKhfgBafu3OP1MRZ" viewBox="0 0 599 741" x="0" y="0"><rect width="100%" height="100%" fill="transparent"></rect><path fill="#fcfcfc" d="M198.412 406.367h183.257c24.862 0 45.313-20.05 45.313-45.313V90.78c0-24.862-20.05-45.313-45.313-45.313H198.412c-24.862 0-45.313 20.05-45.313 45.313v270.274c0 24.862 20.05 45.313 45.313 45.313M173.149 90.78c0-13.634 11.228-25.263 25.263-25.263h183.257c13.634 0 25.263 11.228 25.263 25.263v270.274c0 13.634-11.228 25.263-25.263 25.263H198.412c-13.634 0-25.263-11.228-25.263-25.263zm29.273 170.425h174.836c5.614 0 10.025-4.411 10.025-10.025V103.211c0-5.614-4.411-10.025-10.025-10.025H202.422c-5.614 0-10.025 4.411-10.025 10.025V251.18c0 5.213 4.411 10.025 10.025 10.025m10.025-147.969h154.786v127.919H212.447zm108.671 204.109c4.812 4.812 4.812 12.431 0 17.243-4.812 4.812-12.431 4.812-17.243 0-4.812-4.812-4.812-12.431 0-17.243 4.812-4.812 12.431-4.812 17.243 0m49.724 0c4.812 4.812 4.812 12.431 0 17.243a12.03 12.03 0 0 1-17.243 0 12.03 12.03 0 0 1 0-17.243c4.812-4.812 12.431-4.812 17.243 0m-97.844 8.421c0 5.614-4.411 10.025-10.025 10.025h-15.238v15.238c0 5.614-4.411 10.025-10.025 10.025s-10.025-4.411-10.025-10.025v-15.238h-15.238c-5.614 0-10.025-4.411-10.025-10.025s4.411-10.025 10.025-10.025h15.238v-15.238c0-5.614 4.411-10.025 10.025-10.025s10.025 4.411 10.025 10.025v15.238h15.238c5.614 0 10.025 4.411 10.025 10.025m72.982 16.441c4.812 4.812 4.812 12.431 0 17.243-4.812 4.812-12.431 4.812-17.243 0a12.03 12.03 0 0 1 0-17.243c4.812-4.812 12.431-4.812 17.243 0m0-49.724c4.812 4.812 4.812 12.431 0 17.243a12.03 12.03 0 0 1-17.243 0 12.03 12.03 0 0 1 0-17.243c4.812-4.812 12.431-4.812 17.243 0M202.823 17.798c0-5.614 4.411-10.025 10.025-10.025h153.984c5.614 0 10.025 4.411 10.025 10.025s-4.411 10.025-10.025 10.025H212.848c-5.614 0-10.025-4.411-10.025-10.025"></path><path fill="#fcfcfc" d="M345.965 187.465c.989 2.012 1.06 5.225-3.212 7.978l-52.738 30.252-51.785-30.005c-4.554-2.118-5.507-6.107-4.025-8.613 1.977-3.424 4.307-5.295 9.884-1.765l45.926 26.263 47.231-26.793c5.401-3.212 7.696.742 8.72 2.718m-8.72-30.958-47.231 26.793-45.926-26.299c-5.577-3.53-7.907-1.659-9.884 1.765-1.482 2.507-.53 6.496 4.025 8.614l51.785 30.005 52.738-30.217c4.307-2.754 4.2-6.001 3.177-7.978-1.024-1.977-3.283-5.93-8.684-2.718M238.23 139.21l51.785 30.005 52.738-30.217c4.307-2.753 4.2-6 3.177-7.978-1.024-1.976-3.283-5.93-8.684-2.718l-47.231 26.793-45.926-26.298c-5.577-3.53-7.907-1.66-9.884 1.765-1.482 2.506-.53 6.495 4.025 8.613"></path><path fill="#fcfcfc" d="M102.29 530.22H76.14v-13.68h26.91q6.68 0 11.78-2.21 5.09-2.2 8.05-6.3 2.97-4.11 2.97-9.43 0-5.17-2.59-8.81-2.58-3.65-6.99-5.63-4.41-1.97-9.88-1.97H76.14v-13.68h30.25q10.49 0 18.7 3.57 8.2 3.57 12.92 10.26 4.71 6.69 4.71 16.26 0 6.08-2.81 11.71-2.82 5.62-8.06 10.1-5.24 4.49-12.69 7.15-7.45 2.66-16.87 2.66M80.7 574.6H64.59V468.51H80.7zm61.26 0h-16.42q-.91-7.14-3.87-14.13-2.97-7-7.98-13.38-5.02-6.38-12.39-11.86-7.37-5.47-17.1-9.88l17.93-3.95q10.04 5.02 17.26 11.17 7.22 6.16 12 13 4.79 6.84 7.3 14.14 2.51 7.29 3.27 14.89m58.82 1.82q-12.92 0-22.34-5.25-9.43-5.24-14.44-15.05-5.02-9.8-5.02-23.48t5.09-23.41q5.1-9.73 14.6-14.89 9.5-5.17 22.72-5.17 20.22 0 30.1 11.17 9.88 11.17 8.66 30.63h-69.01l.15-11.55 53.2.15q-.6-8.06-6.99-12.92-6.38-4.87-16.11-4.87-13.07 0-20.06 8.21-7 8.21-7 23.26 0 8.97 3.12 15.88 3.12 6.92 9.04 10.72 5.93 3.8 14.29 3.8 9.88 0 16.49-4.71 6.62-4.72 8.14-12.77h15.35q-1.98 14.13-12.62 22.19-10.64 8.06-27.36 8.06m135.42-1.83h-30.7q-7.75 0-13.22-3.11-5.48-3.12-8.21-8.9-2.74-5.77-2.74-13.52v-73.88l15.35-8.36v82.24q0 3.64 1.07 6.68 1.06 3.04 4.18 4.72 3.11 1.67 9.19 1.67h25.08zm-13.37-71.13h-61.26v-12.47h61.26zm112.78 23.4h-15.35v-10.03q0-6.53-3.95-10.56t-11.4-4.03q-9.43 0-16.87 7.07-7.45 7.07-11.86 21.51l-2.13-15.51q3.35-8.66 8.13-14.44 4.79-5.77 11.1-8.74 6.31-2.96 13.91-2.96 12.61 0 20.52 7.22 7.9 7.22 7.9 20.44zm-56.54 47.73h-15.35v-83.6h14.44l.91 19zm117.05 1.83q-12.92 0-22.27-5.32t-14.36-15.13q-5.02-9.8-5.02-23.18 0-13.68 5.02-23.33 5.01-9.65 14.36-14.97t22.42-5.32q19.46 0 30.55 11.63 11.1 11.62 11.1 31.99 0 13.38-5.02 23.18-5.01 9.81-14.36 15.13t-22.42 5.32m.15-12.77q12.16 0 19.23-8.29 7.07-8.28 7.07-22.57 0-14.44-7.07-22.65-7.07-8.2-19.23-8.2-12.31 0-19.3 8.2-7 8.21-7 22.65 0 14.29 7 22.57 6.99 8.29 19.3 8.29M52.88 677.93H26.73v-13.68h26.91q6.68 0 11.78-2.2 5.09-2.21 8.05-6.31 2.97-4.1 2.97-9.42 0-5.17-2.59-8.82-2.58-3.65-6.99-5.62-4.41-1.98-9.88-1.98H26.73v-13.68h30.25q10.49 0 18.7 3.57 8.2 3.57 12.92 10.26 4.71 6.69 4.71 16.27 0 6.08-2.81 11.7-2.82 5.62-8.06 10.11-5.24 4.48-12.69 7.14-7.45 2.66-16.87 2.66m-21.59 44.39H15.18v-106.1h16.11zm61.26 0H76.13q-.91-7.15-3.87-14.14-2.97-6.99-7.98-13.38-5.02-6.38-12.39-11.85-7.37-5.47-17.1-9.88l17.93-3.95q10.04 5.01 17.26 11.17 7.22 6.15 12 12.99 4.79 6.84 7.3 14.14 2.51 7.3 3.27 14.9m94.39 0h-14.59l-.61-19V667.6q0-8.97-5.85-14.06-5.85-5.1-16.04-5.1-9.88 0-16.11 4.49-6.23 4.48-6.84 12.39h-15.05q.76-8.97 5.78-15.28 5.01-6.31 13.37-9.73 8.36-3.42 19.31-3.42 11.25 0 19.45 3.73 8.21 3.72 12.7 10.71 4.48 6.99 4.48 17.03zm-44.84 1.82q-8.21 0-14.44-2.96-6.23-2.97-9.73-8.52-3.49-5.54-3.49-12.99 0-12.92 9.95-20.07 9.96-7.14 27.89-7.14h21.44v11.4h-22.04q-10.34 0-16.19 3.95-5.85 3.95-5.85 11.1 0 5.93 4.18 9.27t11.32 3.34q9.12 0 16.19-4.94 7.07-4.94 11.47-13.6l1.68 11.25q-3.96 9.57-12.16 14.74-8.21 5.17-20.22 5.17m145.02-1.83h-15.35v-52.75q0-8.81-5.02-14.21t-13.07-5.4q-9.27 0-16.49 6.77-7.22 6.76-11.48 21.05l-2.43-17.18q4.71-11.85 13.6-17.78 8.89-5.93 19.38-5.93 9.43 0 16.34 4.03 6.92 4.03 10.72 11.17 3.8 7.15 3.8 16.87zm-59.59 0h-15.35v-83.6h14.59l.76 18.84zm96.82.01H309V610.6h15.35v41.8l-.76 22.95 16.11-16.27 22.8-20.36h20.37l-58.52 53.2zm60.19 0H366.6l-29.33-51.23 13.53-6.69zm63.23 1.82q-12.92 0-22.34-5.24-9.43-5.25-14.44-15.05-5.02-9.81-5.02-23.49 0-13.68 5.09-23.4 5.1-9.73 14.6-14.9t22.72-5.17q20.22 0 30.1 11.17 9.88 11.18 8.66 30.63h-69.01l.15-11.55 53.2.15q-.6-8.05-6.99-12.92-6.38-4.86-16.11-4.86-13.07 0-20.06 8.21-7 8.2-7 23.25 0 8.97 3.12 15.89 3.12 6.91 9.04 10.71 5.93 3.8 14.29 3.8 9.88 0 16.49-4.71 6.62-4.71 8.14-12.77h15.35q-1.98 14.14-12.62 22.19-10.64 8.06-27.36 8.06m136.04-49.56h-15.35v-10.03q0-6.54-3.95-10.57t-11.4-4.03q-9.43 0-16.87 7.07-7.45 7.07-11.86 21.51l-2.13-15.5q3.35-8.67 8.13-14.44 4.79-5.78 11.1-8.74 6.31-2.97 13.91-2.97 12.61 0 20.52 7.22 7.9 7.22 7.9 20.45zm-56.54 47.73h-15.35v-83.6h14.44l.91 19z" paint-order="stroke"></path></svg></svg>