<?xml version="1.0" standalone="no"?><svg xmlns:xlink="http://www.w3.org/1999/xlink" xmlns="http://www.w3.org/2000/svg" viewBox="0 0 1080 479.98956521739126" preserveAspectRatio="xMaxYMax slice"><g transform="scale(0.8859721082854799)"><rect x="0" y="0" width="1219" height="541.7777777777778" fill="#14161E"/><rect x="0" y="0" width="135.44444444444446" height="135.44444444444446" fill="#14161E"/><circle cx="33.86" cy="33.86" r="33.86" fill="#9e600a"/><circle cx="101.58" cy="33.86" r="33.86" fill="#14161e"/><circle cx="33.86" cy="101.58" r="33.86" fill="#14161e"/><circle cx="101.58" cy="101.58" r="33.86" fill="#774b10"/><rect x="135.44444444444446" y="0" width="135.44444444444446" height="135.44444444444446" fill="#14161E"/><circle cx="169.3" cy="33.86" r="33.86" fill="#5c3c14"/><circle cx="237.02999999999997" cy="33.86" r="33.86" fill="#14161e"/><circle cx="169.3" cy="101.58" r="33.86" fill="#14161e"/><circle cx="237.02999999999997" cy="101.58" r="33.86" fill="#14161e"/><circle cx="338.61" cy="67.72" r="67.72" fill="#4b3316"/><rect x="406.33333333333337" y="0" width="135.44444444444446" height="135.44444444444446" fill="#14161E"/><circle cx="440.19" cy="33.86" r="33.86" fill="#14161e"/><circle cx="507.92" cy="33.86" r="33.86" fill="#14161e"/><circle cx="440.19" cy="101.58" r="33.86" fill="#14161e"/><circle cx="507.92" cy="101.58" r="33.86" fill="#14161e"/><circle cx="609.5" cy="67.72" r="67.72" fill="#a56309"/><rect x="677.2222222222223" y="0" width="135.44444444444446" height="135.44444444444446" fill="#14161E"/><circle cx="711.08" cy="33.86" r="33.86" fill="#c37405"/><circle cx="778.8000000000001" cy="33.86" r="33.86" fill="#14161e"/><circle cx="711.08" cy="101.58" r="33.86" fill="#593b14"/><circle cx="778.8000000000001" cy="101.58" r="33.86" fill="#573a14"/><circle cx="880.39" cy="67.72" r="67.72" fill="#14161e"/><rect x="948.1111111111112" y="0" width="135.44444444444446" height="135.44444444444446" fill="#14161E"/><circle cx="981.97" cy="33.86" r="33.86" fill="#14161e"/><circle cx="1049.69" cy="33.86" r="33.86" fill="#503615"/><circle cx="981.97" cy="101.58" r="33.86" fill="#14161e"/><circle cx="1049.69" cy="101.58" r="33.86" fill="#6a4412"/><circle cx="1151.28" cy="67.72" r="67.72" fill="#14161e"/><circle cx="67.72" cy="203.16" r="67.72" fill="#4b3316"/><rect x="135.44444444444446" y="135.44444444444446" width="135.44444444444446" height="135.44444444444446" fill="#14161E"/><circle cx="169.3" cy="169.3" r="33.86" fill="#9f600a"/><circle cx="237.02999999999997" cy="169.3" r="33.86" fill="#14161e"/><circle cx="169.3" cy="237.02999999999997" r="33.86" fill="#14161e"/><circle cx="237.02999999999997" cy="237.02999999999997" r="33.86" fill="#14161e"/><rect x="270.8888888888889" y="135.44444444444446" width="135.44444444444446" height="135.44444444444446" fill="#14161E"/><circle cx="304.75" cy="169.3" r="33.86" fill="#14161e"/><circle cx="372.47" cy="169.3" r="33.86" fill="#d57d02"/><circle cx="304.75" cy="237.02999999999997" r="33.86" fill="#603e13"/><circle cx="372.47" cy="237.02999999999997" r="33.86" fill="#e38500"/><circle cx="474.04999999999995" cy="203.16" r="67.72" fill="#14161e"/><rect x="541.7777777777778" y="135.44444444444446" width="135.44444444444446" height="135.44444444444446" fill="#14161E"/><circle cx="575.64" cy="169.3" r="33.86" fill="#14161e"/><circle cx="643.36" cy="169.3" r="33.86" fill="#593b14"/><circle cx="575.64" cy="237.02999999999997" r="33.86" fill="#cf7a03"/><circle cx="643.36" cy="237.02999999999997" r="33.86" fill="#14161e"/><circle cx="744.94" cy="203.16" r="67.72" fill="#14161e"/><rect x="812.6666666666667" y="135.44444444444446" width="135.44444444444446" height="135.44444444444446" fill="#14161E"/><circle cx="846.53" cy="169.3" r="33.86" fill="#14161e"/><circle cx="914.25" cy="169.3" r="33.86" fill="#b36b07"/><circle cx="846.53" cy="237.02999999999997" r="33.86" fill="#c17305"/><circle cx="914.25" cy="237.02999999999997" r="33.86" fill="#14161e"/><rect x="948.1111111111112" y="135.44444444444446" width="135.44444444444446" height="135.44444444444446" fill="#14161E"/><circle cx="981.97" cy="169.3" r="33.86" fill="#da8001"/><circle cx="1049.69" cy="169.3" r="33.86" fill="#14161e"/><circle cx="981.97" cy="237.02999999999997" r="33.86" fill="#14161e"/><circle cx="1049.69" cy="237.02999999999997" r="33.86" fill="#4f3515"/><circle cx="1151.28" cy="203.16" r="67.72" fill="#14161e"/><rect x="0" y="270.8888888888889" width="135.44444444444446" height="135.44444444444446" fill="#14161E"/><circle cx="33.86" cy="304.75" r="33.86" fill="#14161e"/><circle cx="101.58" cy="304.75" r="33.86" fill="#14161e"/><circle cx="33.86" cy="372.47" r="33.86" fill="#14161e"/><circle cx="101.58" cy="372.47" r="33.86" fill="#2c231b"/><rect x="135.44444444444446" y="270.8888888888889" width="135.44444444444446" height="135.44444444444446" fill="#14161E"/><circle cx="169.3" cy="304.75" r="33.86" fill="#14161e"/><circle cx="237.02999999999997" cy="304.75" r="33.86" fill="#14161e"/><circle cx="169.3" cy="372.47" r="33.86" fill="#da7f01"/><circle cx="237.02999999999997" cy="372.47" r="33.86" fill="#14161e"/><circle cx="338.61" cy="338.61" r="67.72" fill="#14161e"/><circle cx="474.04999999999995" cy="338.61" r="67.72" fill="#ca7704"/><circle cx="609.5" cy="338.61" r="67.72" fill="#14161e"/><rect x="677.2222222222223" y="270.8888888888889" width="135.44444444444446" height="135.44444444444446" fill="#14161E"/><circle cx="711.08" cy="304.75" r="33.86" fill="#86530e"/><circle cx="778.8000000000001" cy="304.75" r="33.86" fill="#14161e"/><circle cx="711.08" cy="372.47" r="33.86" fill="#14161e"/><circle cx="778.8000000000001" cy="372.47" r="33.86" fill="#14161e"/><rect x="812.6666666666667" y="270.8888888888889" width="135.44444444444446" height="135.44444444444446" fill="#14161E"/><circle cx="846.53" cy="304.75" r="33.86" fill="#14161e"/><circle cx="914.25" cy="304.75" r="33.86" fill="#14161e"/><circle cx="846.53" cy="372.47" r="33.86" fill="#251f1c"/><circle cx="914.25" cy="372.47" r="33.86" fill="#14161e"/><circle cx="1015.83" cy="338.61" r="67.72" fill="#e08301"/><circle cx="1151.28" cy="338.61" r="67.72" fill="#cf7a03"/><circle cx="67.72" cy="474.04999999999995" r="67.72" fill="#bf7105"/><circle cx="203.16" cy="474.04999999999995" r="67.72" fill="#784b10"/><circle cx="338.61" cy="474.04999999999995" r="67.72" fill="#14161e"/><circle cx="474.04999999999995" cy="474.04999999999995" r="67.72" fill="#14161e"/><rect x="541.7777777777778" y="406.33333333333337" width="135.44444444444446" height="135.44444444444446" fill="#14161E"/><circle cx="575.64" cy="440.19" r="33.86" fill="#5d3d14"/><circle cx="643.36" cy="440.19" r="33.86" fill="#b46c07"/><circle cx="575.64" cy="507.92" r="33.86" fill="#14161e"/><circle cx="643.36" cy="507.92" r="33.86" fill="#14161e"/><rect x="677.2222222222223" y="406.33333333333337" width="135.44444444444446" height="135.44444444444446" fill="#14161E"/><circle cx="711.08" cy="440.19" r="33.86" fill="#14161e"/><circle cx="778.8000000000001" cy="440.19" r="33.86" fill="#14161e"/><circle cx="711.08" cy="507.92" r="33.86" fill="#694312"/><circle cx="778.8000000000001" cy="507.92" r="33.86" fill="#14161e"/><rect x="812.6666666666667" y="406.33333333333337" width="135.44444444444446" height="135.44444444444446" fill="#14161E"/><circle cx="846.53" cy="440.19" r="33.86" fill="#14161e"/><circle cx="914.25" cy="440.19" r="33.86" fill="#14161e"/><circle cx="846.53" cy="507.92" r="33.86" fill="#14161e"/><circle cx="914.25" cy="507.92" r="33.86" fill="#4b3416"/><rect x="948.1111111111112" y="406.33333333333337" width="135.44444444444446" height="135.44444444444446" fill="#14161E"/><circle cx="981.97" cy="440.19" r="33.86" fill="#14161e"/><circle cx="1049.69" cy="440.19" r="33.86" fill="#b06908"/><circle cx="981.97" cy="507.92" r="33.86" fill="#14161e"/><circle cx="1049.69" cy="507.92" r="33.86" fill="#14161e"/><rect x="1083.5555555555557" y="406.33333333333337" width="135.44444444444446" height="135.44444444444446" fill="#14161E"/><circle cx="1117.4199999999998" cy="440.19" r="33.86" fill="#a0610a"/><circle cx="1185.1399999999999" cy="440.19" r="33.86" fill="#5a3c14"/><circle cx="1117.4199999999998" cy="507.92" r="33.86" fill="#14161e"/><circle cx="1185.1399999999999" cy="507.92" r="33.86" fill="#14161e"/></g></svg>