<?xml version="1.0" standalone="no"?><svg xmlns:xlink="http://www.w3.org/1999/xlink" xmlns="http://www.w3.org/2000/svg" viewBox="0 0 1080 479.98956521739126" preserveAspectRatio="xMaxYMax slice"><g transform="scale(0.8859721082854799)"><rect x="0" y="0" width="1219" height="541.7777777777778" fill="#ffffff"/><rect x="0" y="0" width="135.44444444444446" height="135.44444444444446" fill="#ffffff"/><circle cx="33.86" cy="33.86" r="33.86" fill="#ffc575"/><circle cx="101.58" cy="33.86" r="33.86" fill="#ffe9ca"/><circle cx="33.86" cy="101.58" r="33.86" fill="#ffb144"/><circle cx="101.58" cy="101.58" r="33.86" fill="#ffffff"/><circle cx="203.16" cy="67.72" r="67.72" fill="#ffeacc"/><rect x="270.8888888888889" y="0" width="135.44444444444446" height="135.44444444444446" fill="#ffffff"/><circle cx="304.75" cy="33.86" r="33.86" fill="#ffffff"/><circle cx="372.47" cy="33.86" r="33.86" fill="#fffbf6"/><circle cx="304.75" cy="101.58" r="33.86" fill="#ffffff"/><circle cx="372.47" cy="101.58" r="33.86" fill="#ffffff"/><circle cx="474.04999999999995" cy="67.72" r="67.72" fill="#ffffff"/><circle cx="609.5" cy="67.72" r="67.72" fill="#ffd79e"/><circle cx="744.94" cy="67.72" r="67.72" fill="#ffffff"/><circle cx="880.39" cy="67.72" r="67.72" fill="#fff4e4"/><rect x="948.1111111111112" y="0" width="135.44444444444446" height="135.44444444444446" fill="#ffffff"/><circle cx="981.97" cy="33.86" r="33.86" fill="#ffffff"/><circle cx="1049.69" cy="33.86" r="33.86" fill="#ffe5c2"/><circle cx="981.97" cy="101.58" r="33.86" fill="#ffca81"/><circle cx="1049.69" cy="101.58" r="33.86" fill="#ffffff"/><circle cx="1151.28" cy="67.72" r="67.72" fill="#ffbf67"/><circle cx="67.72" cy="203.16" r="67.72" fill="#ffad3c"/><circle cx="203.16" cy="203.16" r="67.72" fill="#ffffff"/><circle cx="338.61" cy="203.16" r="67.72" fill="#ffffff"/><circle cx="474.04999999999995" cy="203.16" r="67.72" fill="#fff5e6"/><rect x="541.7777777777778" y="135.44444444444446" width="135.44444444444446" height="135.44444444444446" fill="#ffffff"/><circle cx="575.64" cy="169.3" r="33.86" fill="#ff990c"/><circle cx="643.36" cy="169.3" r="33.86" fill="#ffffff"/><circle cx="575.64" cy="237.02999999999997" r="33.86" fill="#ffffff"/><circle cx="643.36" cy="237.02999999999997" r="33.86" fill="#ffd090"/><rect x="677.2222222222223" y="135.44444444444446" width="135.44444444444446" height="135.44444444444446" fill="#ffffff"/><circle cx="711.08" cy="169.3" r="33.86" fill="#ffffff"/><circle cx="778.8000000000001" cy="169.3" r="33.86" fill="#ffffff"/><circle cx="711.08" cy="237.02999999999997" r="33.86" fill="#ffffff"/><circle cx="778.8000000000001" cy="237.02999999999997" r="33.86" fill="#ffe1b7"/><circle cx="880.39" cy="203.16" r="67.72" fill="#fff1de"/><circle cx="1015.83" cy="203.16" r="67.72" fill="#ffffff"/><rect x="1083.5555555555557" y="135.44444444444446" width="135.44444444444446" height="135.44444444444446" fill="#ffffff"/><circle cx="1117.4199999999998" cy="169.3" r="33.86" fill="#ffd190"/><circle cx="1185.1399999999999" cy="169.3" r="33.86" fill="#ffe7c6"/><circle cx="1117.4199999999998" cy="237.02999999999997" r="33.86" fill="#ffeed5"/><circle cx="1185.1399999999999" cy="237.02999999999997" r="33.86" fill="#ffffff"/><rect x="0" y="270.8888888888889" width="135.44444444444446" height="135.44444444444446" fill="#ffffff"/><circle cx="33.86" cy="304.75" r="33.86" fill="#fffbf5"/><circle cx="101.58" cy="304.75" r="33.86" fill="#ffffff"/><circle cx="33.86" cy="372.47" r="33.86" fill="#ffffff"/><circle cx="101.58" cy="372.47" r="33.86" fill="#ffd9a3"/><rect x="135.44444444444446" y="270.8888888888889" width="135.44444444444446" height="135.44444444444446" fill="#ffffff"/><circle cx="169.3" cy="304.75" r="33.86" fill="#fff1de"/><circle cx="237.02999999999997" cy="304.75" r="33.86" fill="#ffe3bd"/><circle cx="169.3" cy="372.47" r="33.86" fill="#ffffff"/><circle cx="237.02999999999997" cy="372.47" r="33.86" fill="#ffffff"/><rect x="270.8888888888889" y="270.8888888888889" width="135.44444444444446" height="135.44444444444446" fill="#ffffff"/><circle cx="304.75" cy="304.75" r="33.86" fill="#ffffff"/><circle cx="372.47" cy="304.75" r="33.86" fill="#ffeed5"/><circle cx="304.75" cy="372.47" r="33.86" fill="#ffffff"/><circle cx="372.47" cy="372.47" r="33.86" fill="#ffba5a"/><rect x="406.33333333333337" y="270.8888888888889" width="135.44444444444446" height="135.44444444444446" fill="#ffffff"/><circle cx="440.19" cy="304.75" r="33.86" fill="#ffdaa7"/><circle cx="507.92" cy="304.75" r="33.86" fill="#ffe5c0"/><circle cx="440.19" cy="372.47" r="33.86" fill="#ffa82e"/><circle cx="507.92" cy="372.47" r="33.86" fill="#ffffff"/><rect x="541.7777777777778" y="270.8888888888889" width="135.44444444444446" height="135.44444444444446" fill="#ffffff"/><circle cx="575.64" cy="304.75" r="33.86" fill="#fffefc"/><circle cx="643.36" cy="304.75" r="33.86" fill="#ffffff"/><circle cx="575.64" cy="372.47" r="33.86" fill="#ffbd62"/><circle cx="643.36" cy="372.47" r="33.86" fill="#fffcf9"/><rect x="677.2222222222223" y="270.8888888888889" width="135.44444444444446" height="135.44444444444446" fill="#ffffff"/><circle cx="711.08" cy="304.75" r="33.86" fill="#ffffff"/><circle cx="778.8000000000001" cy="304.75" r="33.86" fill="#ffffff"/><circle cx="711.08" cy="372.47" r="33.86" fill="#ffffff"/><circle cx="778.8000000000001" cy="372.47" r="33.86" fill="#ffc16c"/><circle cx="880.39" cy="338.61" r="67.72" fill="#ffd8a2"/><circle cx="1015.83" cy="338.61" r="67.72" fill="#ffffff"/><rect x="1083.5555555555557" y="270.8888888888889" width="135.44444444444446" height="135.44444444444446" fill="#ffffff"/><circle cx="1117.4199999999998" cy="304.75" r="33.86" fill="#ffffff"/><circle cx="1185.1399999999999" cy="304.75" r="33.86" fill="#ffa72c"/><circle cx="1117.4199999999998" cy="372.47" r="33.86" fill="#ffffff"/><circle cx="1185.1399999999999" cy="372.47" r="33.86" fill="#ffffff"/><rect x="0" y="406.33333333333337" width="135.44444444444446" height="135.44444444444446" fill="#ffffff"/><circle cx="33.86" cy="440.19" r="33.86" fill="#ffffff"/><circle cx="101.58" cy="440.19" r="33.86" fill="#ffffff"/><circle cx="33.86" cy="507.92" r="33.86" fill="#ffd293"/><circle cx="101.58" cy="507.92" r="33.86" fill="#ffffff"/><circle cx="203.16" cy="474.04999999999995" r="67.72" fill="#ffffff"/><rect x="270.8888888888889" y="406.33333333333337" width="135.44444444444446" height="135.44444444444446" fill="#ffffff"/><circle cx="304.75" cy="440.19" r="33.86" fill="#ffc676"/><circle cx="372.47" cy="440.19" r="33.86" fill="#ffd498"/><circle cx="304.75" cy="507.92" r="33.86" fill="#fff2e1"/><circle cx="372.47" cy="507.92" r="33.86" fill="#ffb856"/><circle cx="474.04999999999995" cy="474.04999999999995" r="67.72" fill="#ffffff"/><rect x="541.7777777777778" y="406.33333333333337" width="135.44444444444446" height="135.44444444444446" fill="#ffffff"/><circle cx="575.64" cy="440.19" r="33.86" fill="#ffffff"/><circle cx="643.36" cy="440.19" r="33.86" fill="#ffffff"/><circle cx="575.64" cy="507.92" r="33.86" fill="#ffffff"/><circle cx="643.36" cy="507.92" r="33.86" fill="#ffbf65"/><rect x="677.2222222222223" y="406.33333333333337" width="135.44444444444446" height="135.44444444444446" fill="#ffffff"/><circle cx="711.08" cy="440.19" r="33.86" fill="#ffd191"/><circle cx="778.8000000000001" cy="440.19" r="33.86" fill="#ffffff"/><circle cx="711.08" cy="507.92" r="33.86" fill="#ffae3f"/><circle cx="778.8000000000001" cy="507.92" r="33.86" fill="#ffffff"/><circle cx="880.39" cy="474.04999999999995" r="67.72" fill="#ffffff"/><rect x="948.1111111111112" y="406.33333333333337" width="135.44444444444446" height="135.44444444444446" fill="#ffffff"/><circle cx="981.97" cy="440.19" r="33.86" fill="#ffffff"/><circle cx="1049.69" cy="440.19" r="33.86" fill="#ffffff"/><circle cx="981.97" cy="507.92" r="33.86" fill="#ffca81"/><circle cx="1049.69" cy="507.92" r="33.86" fill="#ffffff"/><rect x="1083.5555555555557" y="406.33333333333337" width="135.44444444444446" height="135.44444444444446" fill="#ffffff"/><circle cx="1117.4199999999998" cy="440.19" r="33.86" fill="#ffffff"/><circle cx="1185.1399999999999" cy="440.19" r="33.86" fill="#ff990d"/><circle cx="1117.4199999999998" cy="507.92" r="33.86" fill="#ffffff"/><circle cx="1185.1399999999999" cy="507.92" r="33.86" fill="#ffaf40"/></g></svg>