<svg xmlns="http://www.w3.org/2000/svg" version="1.1" xmlns:xlink="http://www.w3.org/1999/xlink" width="1500" height="722" viewBox="0 0 1500 722"><svg xml:space="preserve" width="1500" height="722" data-version="2" data-id="lg_5pbKhfgBafu3OP1MRZ" viewBox="0 0 384 722" x="0" y="0"><rect width="100%" height="100%" fill="transparent"></rect><path fill="#002400" d="M95.972 405.737h183.257c24.862 0 45.313-20.05 45.313-45.313V90.15c0-24.862-20.05-45.313-45.313-45.313H95.972c-24.862 0-45.313 20.05-45.313 45.313v270.274c0 24.862 20.05 45.313 45.313 45.313M70.709 90.15c0-13.634 11.228-25.263 25.263-25.263h183.257c13.634 0 25.263 11.228 25.263 25.263v270.274c0 13.634-11.228 25.263-25.263 25.263H95.972c-13.634 0-25.263-11.228-25.263-25.263zm29.273 170.425h174.836c5.614 0 10.025-4.411 10.025-10.025V102.581c0-5.614-4.411-10.025-10.025-10.025H99.982c-5.614 0-10.025 4.411-10.025 10.025V250.55c0 5.213 4.411 10.025 10.025 10.025m10.025-147.969h154.786v127.919H110.007zm108.671 204.109c4.812 4.812 4.812 12.431 0 17.243-4.812 4.812-12.431 4.812-17.243 0-4.812-4.812-4.812-12.431 0-17.243 4.812-4.812 12.431-4.812 17.243 0m49.724 0c4.812 4.812 4.812 12.431 0 17.243a12.03 12.03 0 0 1-17.243 0 12.03 12.03 0 0 1 0-17.243c4.812-4.812 12.431-4.812 17.243 0m-97.844 8.421c0 5.614-4.411 10.025-10.025 10.025h-15.238v15.238c0 5.614-4.411 10.025-10.025 10.025s-10.025-4.411-10.025-10.025v-15.238h-15.238c-5.614 0-10.025-4.411-10.025-10.025s4.411-10.025 10.025-10.025h15.238v-15.238c0-5.614 4.411-10.025 10.025-10.025s10.025 4.411 10.025 10.025v15.238h15.238c5.614 0 10.025 4.411 10.025 10.025m72.982 16.441c4.812 4.812 4.812 12.431 0 17.243-4.812 4.812-12.431 4.812-17.243 0a12.03 12.03 0 0 1 0-17.243c4.812-4.812 12.431-4.812 17.243 0m0-49.724c4.812 4.812 4.812 12.431 0 17.243a12.03 12.03 0 0 1-17.243 0 12.03 12.03 0 0 1 0-17.243c4.812-4.812 12.431-4.812 17.243 0M100.383 17.168c0-5.614 4.411-10.025 10.025-10.025h153.984c5.614 0 10.025 4.411 10.025 10.025s-4.411 10.025-10.025 10.025H110.408c-5.614 0-10.025-4.411-10.025-10.025"></path><path fill="#002400" d="M243.515 186.835c.989 2.012 1.06 5.225-3.212 7.978l-52.738 30.252-51.785-30.005c-4.554-2.118-5.507-6.107-4.025-8.613 1.977-3.424 4.307-5.295 9.884-1.765l45.926 26.263 47.231-26.793c5.401-3.212 7.696.742 8.72 2.718m-8.72-30.958-47.231 26.793-45.926-26.299c-5.577-3.53-7.907-1.659-9.884 1.765-1.482 2.507-.53 6.496 4.025 8.614l51.785 30.005 52.738-30.217c4.307-2.754 4.2-6.001 3.177-7.978-1.024-1.977-3.283-5.93-8.684-2.718M135.78 138.58l51.785 30.005 52.738-30.217c4.307-2.753 4.2-6 3.177-7.978-1.024-1.976-3.283-5.93-8.684-2.718l-47.231 26.793-45.926-26.298c-5.577-3.53-7.907-1.66-9.884 1.765-1.482 2.506-.53 6.495 4.025 8.613M66.4 565.33H51.04V434.71h27.38q10.39 0 15.37 3.67 4.97 3.68 6.49 11.06 1.52 7.38 1.52 18.59 0 12.1-2.45 19.22-2.45 7.13-9.5 9.21 3.57.59 5.9 3.04 2.34 2.45 3.68 7.64 1.33 5.2 1.89 13.92.56 8.72.56 21.93v3.64q0 2.37.07 5.19.08 2.82.19 5.57.11 2.75.33 4.86.22 2.12.59 3.08H87.78q-.3-.67-.52-2.97-.23-2.3-.37-6.08-.15-3.79-.23-9.02-.07-5.23-.07-11.73v-14.21q0-7.42-.63-11.32-.63-3.89-2.97-5.42-2.34-1.52-7.46-1.81l-9.13-.52zm0-118.45v44.09h9.8q4.23 0 6.49-1.67 2.27-1.67 3.08-6.68.82-5.01.82-15.03v-.89q0-8.32-.78-12.58-.78-4.27-3.01-5.76-2.22-1.48-6.75-1.48zm77.34 119.8q-8.02 0-12.88-2.78-4.86-2.79-7.39-7.91-2.52-5.12-3.37-12.28-.86-7.16-.86-15.85v-39.33q0-7.87 1.12-14.44 1.11-6.57 3.86-11.36 2.74-4.78 7.64-7.42 4.9-2.63 12.47-2.63 7.64 0 12.32 2.67 4.68 2.67 7.09 7.53t3.23 11.58q.81 6.72.81 14.73v21.01h-33.25v22.19q0 10.54 1.45 16.07 1.45 5.53 7.91 5.53 4.23 0 6.04-2.64 1.82-2.63 2.23-7.42.41-4.79.41-11.32v-8.98h14.92v4.75q0 8.69-.71 15.74-.7 7.05-3 12.09-2.31 5.05-7.09 7.76-4.79 2.71-12.95 2.71m-9.28-80.45v13.65h18.11v-14.17q0-6.68-.45-11.25-.44-4.56-2.15-6.9-1.71-2.34-5.64-2.34-4.38 0-6.49 2.67-2.12 2.68-2.75 7.39-.63 4.71-.63 10.95m81.72 79.78h-10.46q-7.13 0-10.76-1.71-3.64-1.7-4.9-5.49-1.26-3.78-1.26-10.02v-82.6h-10.17V454.9h10.17v-20.18h15.21v20.18h12.03v11.29h-12.03v81.27q0 2.82.74 4.19.75 1.37 3.34 1.82 2.6.44 8.09.44zm29.68-.68h-15.29V454h15.29v12.4q1.93-6.46 6.72-10.09 4.79-3.64 12.21-3.64.15 0 .18 1.97.04 1.96.04 4.49v6.45q-3.56 0-7.12.86-3.57.85-6.68 2.89-3.12 2.04-5.35 5.53zm55.52 1.35q-7.87 0-12.77-2.71-4.9-2.71-7.53-7.72-2.64-5.01-3.6-12.02-.97-7.02-.97-15.7v-39.41q0-10.47 2.01-18.7 2-8.24 7.38-12.99t15.48-4.75q7.57 0 12.39 2.71 4.83 2.71 7.5 7.64 2.67 4.94 3.67 11.58t1 14.51v39.41q0 8.54-.89 15.51-.89 6.98-3.45 12.06-2.56 5.09-7.42 7.83-4.86 2.75-12.8 2.75m0-12.69q4.01 0 5.97-2.67 1.97-2.68 2.64-7.46.66-4.79.66-11.1v-46.68q0-6.24-.66-10.88-.67-4.63-2.68-7.23-2-2.6-5.93-2.6-4.16 0-6.24 2.6t-2.71 7.23q-.63 4.64-.63 10.88v46.68q0 6.31.63 11.1.63 4.78 2.71 7.46 2.08 2.67 6.24 2.67M19.85 713.05H4.49V582.42h27.38q10.39 0 15.37 3.67 4.97 3.68 6.49 11.06 1.52 7.39 1.52 18.6 0 12.09-2.45 19.22-2.45 7.12-9.5 9.2 3.57.59 5.9 3.04 2.34 2.45 3.68 7.65 1.33 5.19 1.89 13.91.56 8.73.56 21.94v3.63q0 2.38.07 5.2.08 2.82.19 5.56.11 2.75.33 4.87.22 2.11.59 3.08H41.23q-.3-.67-.52-2.97-.23-2.3-.37-6.09-.15-3.78-.23-9.02-.07-5.23-.07-11.72v-14.22q0-7.42-.63-11.31-.63-3.9-2.97-5.42-2.34-1.52-7.46-1.82l-9.13-.52zm0-118.46v44.09h9.8q4.23 0 6.49-1.67 2.27-1.67 3.08-6.68.82-5.01.82-15.03v-.89q0-8.31-.78-12.58t-3.01-5.75q-2.22-1.49-6.75-1.49zm71.1 119.43q-10.09 0-14.54-7.83-4.46-7.83-4.53-21.71v-10.83q0-7.35 2.52-12.21 2.52-4.86 7.13-8.13 4.6-3.27 10.83-5.9 6.24-2.64 13.66-5.6v-8.61q0-7.13-.45-11.54-.44-4.42-2.26-6.5-1.82-2.08-5.83-2.08-3.93 0-5.9 2.08-1.96 2.08-2.56 6.53-.59 4.46-.59 11.58v3.86H73.29v-3.19q0-7.13.89-13.25t3.41-10.65q2.53-4.53 7.39-7.09 4.86-2.56 12.8-2.56 7.57 0 12.21 2.41 4.64 2.42 7.12 7.09 2.49 4.68 3.38 11.54.89 6.87.89 15.85v75.78h-15.29v-9.65q-.67 2.22-2.59 4.71-1.93 2.49-5.05 4.19-3.12 1.71-7.5 1.71m4.31-12.32q4 0 6.9-2.56 2.89-2.56 3.86-5.08v-42.38q-5.72 2.52-9.39 4.56-3.67 2.04-5.71 4.27-2.05 2.23-2.86 5.34-.82 3.12-.82 7.87v10.32q0 9.42 1.63 13.54 1.64 4.12 6.39 4.12m61.01 11.35h-15.21V601.72h15.21v11.8q1.49-5.2 6.35-9.2 4.86-4.01 11.62-4.01 8.38 0 13.06 5.94 4.67 5.93 4.67 18.03v88.77h-15.21v-88.7q0-5.93-2.67-8.6-2.67-2.68-6.83-2.68-3.04 0-5.57 1.34-2.52 1.34-3.97 4.16-1.45 2.82-1.45 7.27zm72.28 0h-15.21V581.01h15.21v73.63l21.9-52.92h15.36l-23.45 54.99 24.71 56.34h-15.66l-22.86-54.18zm73.93 1.33q-8.02 0-12.88-2.78-4.86-2.78-7.39-7.91-2.52-5.12-3.37-12.28-.86-7.16-.86-15.84v-39.34q0-7.87 1.12-14.44 1.11-6.56 3.86-11.35 2.74-4.79 7.64-7.42 4.9-2.64 12.47-2.64 7.64 0 12.32 2.67 4.68 2.68 7.09 7.54 2.41 4.86 3.23 11.58.81 6.71.81 14.73v21h-33.25v22.19q0 10.54 1.45 16.07 1.45 5.53 7.9 5.53 4.23 0 6.05-2.63 1.82-2.64 2.23-7.43.41-4.78.41-11.31v-8.98h14.92v4.75q0 8.68-.71 15.73-.7 7.05-3.01 12.1-2.3 5.04-7.08 7.75-4.79 2.71-12.95 2.71m-9.28-80.45v13.66h18.11v-14.18q0-6.68-.45-11.24-.44-4.57-2.15-6.91t-5.64-2.34q-4.38 0-6.49 2.68-2.12 2.67-2.75 7.38-.63 4.71-.63 10.95m67.18 79.13h-15.29V601.73h15.29v12.39q1.93-6.45 6.71-10.09 4.79-3.64 12.21-3.64.15 0 .19 1.97.03 1.97.03 4.49v6.46q-3.56 0-7.12.85t-6.68 2.89q-3.12 2.05-5.34 5.53z"></path></svg></svg>